<?xml version="1.0" encoding="utf-8"?>
<!-- Generator: Adobe Illustrator 22.0.1, SVG Export Plug-In . SVG Version: 6.00 Build 0)  -->
<svg version="1.1" id="Layer_1" xmlns="http://www.w3.org/2000/svg" xmlns:xlink="http://www.w3.org/1999/xlink" x="0px" y="0px"
	 viewBox="0 0 1000 1000" style="enable-background:new 0 0 1000 1000;" xml:space="preserve">
<style type="text/css">
	.st0{fill:#62743A;}
</style>
<path class="st0" d="M500,60C257,60,60,257,60,500s197,440,440,440s440-197,440-440S743,60,500,60z M500,800
	c-165.7,0-300-134.3-300-300s134.3-300,300-300s300,134.3,300,300S665.7,800,500,800z"/>
<path class="st0" d="M574,488.1V293.9c0-6.6-5.3-11.9-11.9-11.9H437.9c-6.6,0-11.9,5.3-11.9,11.9v194.2c0,6.6-5.3,11.9-11.9,11.9
	h-88.7c-10.2,0-15.7,12.1-8.9,19.8l171.7,194.3c4.7,5.3,12.9,5.4,17.7,0.1l176.9-194.3c7-7.6,1.5-19.9-8.8-19.9h-88.2
	C579.3,500,574,494.7,574,488.1z"/>
</svg>
