<?xml version="1.0" encoding="utf-8"?>
<!-- Generator: Adobe Illustrator 22.0.1, SVG Export Plug-In . SVG Version: 6.00 Build 0)  -->
<svg version="1.1" id="Layer_1" xmlns="http://www.w3.org/2000/svg" xmlns:xlink="http://www.w3.org/1999/xlink" x="0px" y="0px"
	 viewBox="0 0 947 225.8" style="enable-background:new 0 0 947 225.8;" xml:space="preserve">
<style type="text/css">
	.st0{fill:#12192F;}
</style>
<g>
	<path class="st0" d="M932.8,95.4c-1.7-0.3-1.9-0.3-17.4,36.5c-1.8,4.2-3.1,7.4-3.6,8.5c-1.4,3.2-2.8,6.4-4.2,9.6
		c-1.7,4-3.5,8-5.3,12l-0.3,0.6c-1.1,2.4-3.7,8.2-5.8,8.3c-0.9,0.1-1.9-1.3-2.4-2.1c-3.8-6-5.2-16.1-6.3-23.6l-0.3-1.8
		c-1-7.3,0.8-12,3.2-18c0.6-1.6,1.3-3.2,1.9-5c5-14.1,8.3-30.3,10.1-49.7c0.1-0.8,0.2-1.7,0.3-2.7c0.9-8.1,2.4-21.7-3.2-27.5
		c-1.9-2-4.5-2.9-7.6-2.7c-15,1.1-18.8,22.5-20.3,30.5c-2.5,13.9-3.2,29.6-2.2,48c0.4,7.5,1.4,14.8,2.5,22.9
		c0.9,6.5-0.9,13.2-2.6,19.6c-0.2,0.7-0.4,1.5-0.6,2.3c-1.5,5.7-3.1,12.2-6.5,16.6c-1.1,1.5-2.2,2.3-2.9,2.3c-1.5-0.1-3.3-3.5-4.5-6
		c-0.3-0.6-0.6-1.2-0.9-1.7c-7-12.8-8-25-9.2-39.2l-0.1-1.7c-0.2-1.8-0.5-3.7-0.8-5.8c-0.8-4.9-1.6-10.6-0.3-14.4
		c0.9-2.8,2.6-5.5,4.3-8.4c1.5-2.5,3.1-5.1,4.2-7.9l0.9-2.1c4.9-12.1,10.9-27.1,10.1-40.5c-0.3-4.3-1.9-7.7-4.6-9.5
		c-1.6-1.1-4.3-2-8.3-0.6c-6.2,2.2-8.8,9.2-10.5,13.9c-5,13.4-6.7,28.3-7.7,42.4c-0.6,8.2-0.4,16,0,24.8c0.2,5.7-1,10.9-2.2,16.4
		c-0.3,1.2-0.5,2.4-0.8,3.6l-0.2,0.8c-1.4,6.7-2.9,13.6-5.9,19.8c-2.5,5.2-3.7,5.3-3.8,5.2c0,0-0.9-0.1-2.2-3.4
		c-4.1-11.1-2.6-26.3-1.4-38.6c0.2-1.9,0.4-3.7,0.5-5.4c0.1-1.4,0.5-3.4,1-5.6c1.2-5.9,2.5-12.6,0.9-16.2c-2.2-4.8-7-3.4-10.2-2.5
		c-0.5,0.1-1,0.3-1.4,0.4c-12.7,3.1-25.2,8.9-33.4,13.2c-0.5,0.3-1,0.6-1.6,1c-0.7,0.5-2,1.4-2.5,1.4c-0.3,0-0.4,0-0.5,0
		c0,0,0-0.1-0.1-0.1c-0.3-0.5-0.7-1.1-1.6-1.9c-0.7-0.6-1.3-1.2-1.9-1.8c-1.2-1.2-2.4-2.5-4.1-3.4c-3.4-1.9-7.4-2.9-12.1-2.9
		c26.6-26.4,36.4-50.1,29.1-70.7c-2.7-7.5-7.9-12.8-15.5-15.6c-14.2-5.3-33.1-0.7-44.5,5.8c-5.8,3.3-10.4,7-13.6,11.1
		c-1.3,1.6-6.2,8.9-5.7,13.1c0.2,1.4,0.8,2.2,1.4,2.6c1.5,1.2,3,1.5,4.4,1.1c2.6-0.8,3.8-4.2,4.6-6.4c0.2-0.4,0.3-0.8,0.4-1.1
		c1.6-3.7,5.1-8.2,8.8-11.1c7.8-6.2,22.7-13.6,31.5-10.5c10.4,3.7,14.1,11.7,12.5,27c-1,9.3-6.5,19.1-11.4,27.9
		c-0.7,1.2-1.4,2.4-2,3.6c-5.4,9.7-12.7,17.8-20.2,25.1c0.8-4.5,2-9.1,3.2-13.6c0.7-2.7,1.5-5.5,2.1-8.3c0.6-2.6,1.2-5.1,1.7-7.7
		c1.2-5.7,2.5-11.5,4.2-17.1c1.1-3.8,2.6-7.5,4.1-11.2l0.4-0.9c0.3-0.7,0.8-1.8,1.4-2.9c1.6-3.1,3.4-6.7,3.2-9.2
		c-0.2-2.1-1.9-3.7-4.7-4.3c-4-1-9.6,0-11.7,3.1c-1.4,2.1-1.6,6.1-1.7,9.5c0,1.4-0.1,2.6-0.2,3.5c-0.5,3.9-1.2,8.1-2.2,12.9
		c-1,5-2.6,9.8-4.1,14.5c-0.8,2.5-1.7,5.2-2.5,7.8c-2.9,10-5,18.4-6.6,26.2c-0.2,0.8-0.3,1.7-0.4,2.6c-0.3,2.1-0.5,4.5-1.6,5.8
		c-0.8,1-2.2,1.5-3.7,2.1c-1.7,0.7-3.5,1.4-4.9,2.8l-1.1,1.2l1.2,1c2,1.7,4.9,1.7,7.3,1.6c-3,14.5-8.5,28.8-13.8,42.5L696,171
		c-2.6,6.8-4.9,13.8-7.1,20.6l-1.4,4.2c-0.2,0.5-0.4,1.2-0.8,2c-1.6,3.7-2.8,6.9-1.7,9c0.9,1.9,3.9,2.6,6.2,3.2
		c0.6,0.2,1.2,0.3,1.5,0.4l0.2,0.1h0.3c8.5,0,9.7-6.8,10.8-12.7c0.2-1.2,0.5-2.5,0.8-3.8c1.3-5.6,2.6-11.2,3.7-16.7
		c0.5-2.3,1-4.7,1.5-7c3-13.7,6.9-28,12-43.7c0.2-0.6,0.4-1.2,0.6-1.8c0.7-2.4,1.3-4.5,2.9-6c1.1-1,2.8-1.8,4.4-2.6
		c1-0.5,2-1,2.9-1.5c0.8-0.5,1.6-1,2.4-1.5c3.9-2.4,7.2-4.6,11.7-4.3c4.3,0.3,8.4,2.5,11.4,6.1c1.9,2.3,2.8,3.8,2.1,5
		c-0.5,0.9-2.4,2-3.8,2.8c-0.9,0.5-1.8,1.1-2.4,1.6c-18.7,14.5-38.4,38.5-37.5,62.7c0.2,5.7,2.1,9.6,5.8,11.7
		c4.6,2.7,11.7,1.9,19.5-2.2c8.8-4.7,16.1-12.8,22.2-25c6.1-12.1,9.2-26.1,8.6-39.6c-0.1-2-0.4-3.7-0.6-5.1
		c-0.6-3.7-0.8-4.9,3.3-7.5c3.9-2.5,7.9-4.5,12.4-6.5c-0.4,0.6-0.8,1.1-1.1,1.5c-0.7,0.9-1.3,1.7-1.6,2.3c-1.7,3.2-3,6.5-4,9.8
		c-1.4,4.8-3.9,13.6-0.2,18.7c3,4.2,6.4,4.7,8.7,4.4c6.2-0.8,12.2-8.4,15.6-14.4c-0.1,1.2-0.2,2.4-0.3,3.5c-0.1,1.3-0.2,2.4-0.3,3.5
		l-0.1,2.9c-0.1,3-0.1,6.1-0.1,9.2c0,5.3,0,16.3,6.8,20.7c3.3,2.1,6.5,2.6,9.5,1.3c6.8-2.9,11-14.3,13.3-23.6c0.1,1.1,0.2,2.1,0.2,3
		c0.1,1.7,0.2,3.2,0.4,4.4c0.9,4.6,2.3,8.8,3.9,12.5c4,9.2,9.3,14.3,15.6,15.4c4.1,0.7,7.6-0.1,10.7-2.4c7.2-5.3,9.8-17.9,11.1-27.3
		c2.4,8.5,5.3,19,13.9,20.8c8.1,1.8,15.6-4.2,21.7-17.4c4.8-10.5,9.3-21.8,13.1-31.6c3.8-9.6,8.2-22.2,9.3-33.3l0.1-1.4L932.8,95.4z
		 M891.3,85.1c-1.2,7.5-2.5,14.2-4,20.3c-0.3,1.1-0.5,2.4-0.8,3.7c-0.4,2.1-0.9,4.5-1.6,6.7c-0.8-11.8-1.6-23.9-0.6-35.6
		c0.5-6.8,2-13,4.5-19c0.4-0.9,0.8-2,1.2-3.2c0.8-2.3,2-5.5,3.3-7.7C894.1,60.8,893.4,71.7,891.3,85.1z M843.3,94.9
		c1.1-13.1,3-27.8,10.3-39.1c-0.3,7-2.5,14.2-4.4,20.8l-0.1,0.4C846.5,86,844.6,91.5,843.3,94.9z M803.4,111.5
		c-0.4,2.9-1.6,7.8-3.5,14.1c-1.8,5.9-4.2,10.6-7.4,14.2C793.3,129.9,797,120.2,803.4,111.5z M731.2,177.6l0-0.6
		c0.3-5.4,1-11.7,4.5-17.1c5.9-9.1,13.8-17.3,21.4-25.3c2-2.1,4.1-4.3,6.1-6.4c1.7,12.5-0.7,26.8-6.8,39.8c-3,6.3-6.4,11.7-10.1,16
		c-5.5,6.3-11.2,10.6-13.2,10C732.6,193.9,730.4,192.5,731.2,177.6z"/>
	<path class="st0" d="M650.8,99l-1.2-0.2c-1.8-0.2-2.3,0.4-9.4,20.4c-1.8,5-3.4,9.8-4.1,11.1c-0.2,0.5-0.5,1-0.8,1.6
		c-1.9,3.9-4.7,9.7-7.9,11.6c-0.3,0.2-0.6,0.4-0.9,0.5c-0.5,0.3-1,0.6-1.2,0.7c-0.3-0.2-0.7-0.7-1.5-1.7c-1.1-1.4-1.9-3.3-2.4-5.6
		c-1.8-7.9-0.7-22.3,5.2-27c3.9-3.1,10.5-8.2,5.3-14.9c-1.5-2-3.7-3.1-6.2-3.3c-2.8-0.2-5.7,1-7.9,3.1c-5.6,5.5-7.7,15.1-9.7,23.6
		c-0.7,3.2-1.4,6.2-2.2,8.7c-1.2,3.8-2.4,7.6-3.6,11.4c-2.3,7.1-4.6,14.5-6.9,21.8c-0.2,0.6-0.4,1.5-0.7,2.5
		c-4.1,14.6-7.7,21.8-10.7,21.2c-5.3-0.9-7.7-18.5-8.4-24.2c-0.1-0.9-0.2-1.6-0.3-2.2c-1.8-12.3-1-25.2,0.2-37.3
		c0.1-1.2,0.2-2.5,0.3-3.8c0.3-4,0.6-8.2,1.7-11.7c1.1-3.3,3.7-5.6,6.4-8.1c0.8-0.7,1.6-1.4,2.4-2.2c7.1-6.8,14.3-14.4,17.9-25.3
		l0.4-1.2c1.8-5.4,4.1-12.1,1.4-16.5c-1.3-2.1-3.7-3.3-6.9-3.6c-11.1-1.1-16.5,6.5-20.6,14.9c-5,10.1-8.9,19-12,29.9
		c-0.3,1.2-0.6,2.3-0.8,3.4c-0.8,3.8-1.3,5.7-4.1,6.6c-1.8,0.6-3.4,0.5-5,0.4c-2.9-0.1-5.9-0.3-9.2,3.3c-7,7.6-7.2,19.8-6.8,28.4
		c0.4,8.6-8.6,20.7-14.4,26.3c-1.8,1.8-2.5,1.6-2.5,1.6c-0.2-0.1-1-0.8-1.2-6.3c-0.2-4.9,0.2-9.9,0.6-15.1c0.8-9.7,2.2-19.5,3.6-29
		c0.4-2.9,0.8-5.7,1.2-8.6c0.1-0.7,0.3-1.5,0.5-2.4c0.8-3.7,1.9-8.8-1.7-11c-2.3-1.4-7.2-1.1-10.1,0.4c-1.2,0.7-2.1,1.6-2.5,2.6
		c-13.7,0.4-16.4,8.4-20.2,19.4l-0.5,1.3c-2.8,7.9-6.2,15.9-9.5,23.6c-1.8,4.3-3.8,8.8-5.5,13.2c-0.2,0.6-0.5,1.2-0.7,1.7
		c-1.8,4.5-3.6,9.1-6.9,12.4c-1.6,1.6-2.5,1.9-2.8,1.8c-0.2-0.1-1.5-0.8-1.8-7.7c-0.5-13.2,1.2-26.6,3.1-40.3
		c0.2-1.2,0.5-2.5,0.7-3.7c0.9-4.2,1.9-8.5-0.8-12c-1.2-1.6-3-2.5-4.7-3.3c-2.2-1.1-4.1-2-4.7-4.3c-0.7-2.6,0.6-6.2,1.9-10
		c2.3-6.4,4.8-13.7-1.7-18.2c-3.7-2.6-6.1-2-7.6-1c-6,4-4,21.5-3.5,23.8c0.2,0.9,0.4,1.8,0.6,2.6c0.9,3.7,1.5,6.1,0.7,10.3
		c-0.7,3.8-1.6,8.2-3.1,12.1c-1.8,4.6-4.6,9.1-7.3,13.4c-0.8,1.3-1.7,2.6-2.4,3.9c-0.4,0.7-0.9,1.5-1.3,2.3c-1.8,3.2-3.9,6.9-7,8.4
		c-1.8,0.8-3.1,0.9-4.1,0.2c-3.6-2.3-3.4-12.8-3.3-17.3l0-1.2c0-0.9,0-2,0-3.2c-0.1-4.4-0.3-10.4,1.5-13.3c0.8-1.3,2.7-2.3,4.7-3.4
		c2.1-1.1,4.4-2.2,5.8-4.1c3.2-4.1,3.6-10,0.9-13.7c-2.2-3-5.9-3.9-10-2.4C414.6,89,411.9,102.8,410,113c-0.3,1.7-0.6,3.4-1,4.8
		c-1.6,7.3-4.5,14.5-7.3,21.5c-1.3,3.3-2.7,6.8-4,10.2c-0.1,0.4-0.3,1-0.6,1.8c-3.9,11.6-7,17.8-9.4,18.5c-0.2,0.1-0.5,0.1-0.9-0.3
		c-2-1.7-1.1-12.3-0.8-15.7c0.1-0.8,0.1-1.5,0.2-2c0.3-5.4,1.2-11,2.5-17c2.4-10.7,5.4-21.5,8.3-31.9c0.7-2.6,1.4-5.2,2.1-7.8
		c0.5-1.8,1-3.5,1.5-5.3c1-3.5,2-7.1,2.8-10.7c0.1-0.7,0.3-1.2,0.5-1.7c0.5-1.6,1.1-3.4-1.5-5.3c-1.6-1.2-6.8-1.1-8.3-0.4
		c-2.7,1.3-3.9,4.9-5.1,8.3c-0.6,1.8-1.2,3.6-1.9,4.6c-3.1,4.7-5.4,8.8-7.4,12.8c-1,2-2,4-3,6.1c-3.4,7-6.6,13.7-11,19.9
		c-0.5-5.9-0.7-11.3,0.4-17.3c0.1-0.8,0.5-1.9,0.8-3c1.4-5,3.4-11.7-1.1-14.1c-2.7-1.4-4.8-0.9-6-0.2c-5.8,3.4-6.9,18-7.2,28.6
		c0,0.5,0,0.8,0,1.1c-0.1,2.8,0.3,5.2,0.6,7.3c0.5,3.2,1,5.9-0.3,9.5c-1.9,4.9-3.9,9.8-5.8,14.6c-0.8,2-1.6,4-2.4,6
		c-1,2.5-2,5-3,7.5c-4.1,10.5-8.4,21.4-14.3,30.8c-4.8-13.9,0.7-32.9,4.7-47l0.4-1.3c1.9-6.5,3.9-13.2,5.9-19.6l1.6-5.2
		c0.6-1.9,1.5-4.2,2.5-6.6c2.5-6.3,5.4-13.4,4.8-18.8c-0.3-2.1-1.2-3.6-2.7-4.6c-3.6-2.2-9.6-0.6-15,1.3c-4.7,1.7-7.7,5.1-10.6,8.3
		c-1.4,1.5-2.8,3.1-4.3,4.5c-10.8,9.5-21.1,19.6-32.6,31.9c-5.2-9.8-9.4-18.6-9-30.1c0-0.5,0.1-1.2,0.2-2c0.4-3,1-6.8-1.1-8.4
		c-1.1-0.8-2.5-0.8-4.3,0c-4.1,1.8-4.4,8.2-4.7,12.4c0,0.8-0.1,1.4-0.1,2c-1,9.6-3.5,19.1-6,28.4c-0.6,2.2-1.2,4.4-1.7,6.6
		c-0.7,2.6-1.3,5.2-1.9,7.8c-2,8.4-4.1,17.1-7.5,24.9c-8.3-9.5-9-26.1-9.6-38.5l-0.1-2.2c-0.4-8.3,0-16.1,0.6-25.5
		c0.2-3.2-0.4-5.4-1.9-6.8c-2.4-2.1-6.2-1.6-10.9-0.8c-12.9,2.3-17.3,20.7-20,31.7c-0.2,0.7-0.3,1.4-0.5,2.1
		c-2.1,8.3-3.8,16.9-5.4,25.1c-1.2,6.2-2.5,12.6-4,19c-1.1-3.4-1.4-8.4-1.6-12.1c-0.1-1.6-0.2-3-0.3-4.1c-0.7-6.2-1.4-12.2-1.5-18.3
		c-0.3-13.1,1.7-26.3,3.4-38c1.4-9.3,3.6-18.6,5.7-27.5c0.9-3.6,1.7-7.3,2.6-11c1-4.5,1.9-9,2.8-13.4c0.5-2.3,0.9-4.6,1.4-6.8
		c0.1-0.7,0.4-1.7,0.7-2.8c1.7-6.3,3.1-12.3,0.8-15.3c-1.4-1.8-4.3-2.1-6-2.1c-3,0-7,0.8-8.5,2.7c-1.6,2-2,5-2.3,7.9
		c-0.2,1.8-0.4,3.7-1,5.1c-2.4,6-5.5,11.8-8.6,17.4c-3.2,5.9-6.4,12-9,18.3c-7.3,18.7-12.9,38.3-18.4,57.4
		c-1.2,4.2-2.4,8.5-3.7,12.8c-0.2-3.9,0.3-8.7,0.7-12.6c0.2-1.9,0.4-3.8,0.5-5.3c0.4-7,1.1-14.1,1.9-21.3
		c1.6-14.2,3.5-28.2,5.6-43.7c0.3-2.2,0.6-4.3,0.9-6.5c0.7-4.9,1.4-10,2-15.1c0.1-0.6,0.2-1.4,0.4-2.4c0.9-5.3,2.2-13.2-1.4-16
		c-1.7-1.3-3.4-1.7-5-1.2c-3.8,1.1-5.9,6.9-7.1,10.3c-0.2,0.4-0.3,0.8-0.4,1.1c-2.3,6-5.3,13.8-8.7,21.8
		c-12.2,28.8-24.6,55.2-37.8,80.8l-1,2c-6.9,13.4-21.2,41.2-36.9,43.9c-4.2,0.7-8.2-0.4-12.1-3.5c10.9-6.9,20.1-14,23-26.3
		c1.8-7.5,0.4-15.1-3.6-20.4c-3.4-4.5-8.4-6.9-14.4-7.1c-11.4-0.3-22.6,7.2-27,18.4c-5.4,13.6,0.6,25.7,6.5,34.1
		c-4.2,0.5-8.7,0.4-12.1-1.6c-2.5-1.5-2.7-2.9-3-5c-0.2-1.5-0.4-3.1-1.5-4.9c-1-1.7-2.1-2.5-3.4-2.5c0,0,0,0,0,0c-1.4,0-2.7,1-3.8,3
		c-2.9,5.1,1.3,11.6,5.4,14.3c4.8,3.2,10,3,15,2.8c4.1-0.2,8.1-0.3,11.4,1.6c8.2,4.7,18.5,5.4,28.8,2.2c8.5-2.7,15-11.6,20.2-18.7
		l0.9-1.2c6.1-8.3,11.8-17.7,18.5-30.5c9.9-19,18.9-38.8,27.5-58.1c-0.3,2.7-0.5,5.5-0.8,8.1c-1.2,12.3-2.4,24.9-2.3,37.8
		c0,3.8,0.6,37.7,9.5,41.4c2.2,0.9,4.5,0.2,6.9-2.2c3.9-3.9,5.7-11.9,7.2-19c0.5-2.4,1-4.7,1.5-6.5c1.4-4.7,2.8-9.5,4.3-14.2
		c1.4-4.8,2.9-9.5,4.3-14.3c5.1-16.8,10.5-31.8,16.6-45.5c-0.9,9.5-2.6,19-4.3,28.3c-0.8,4.7-1.7,9.5-2.5,14.3
		c-2.7,17.1-3.4,33.4-2,49.9c0,0.5,0.1,1.3,0.1,2.1c0.8,12.9,2.6,26.6,9.2,30.6c2.3,1.4,5,1.5,8,0.2c5.4-2.4,6.8-11.9,7.8-18.1
		c0.2-1.3,0.4-2.5,0.6-3.4c1.5-7.4,3-15,4.5-22.6c3.6,1.4,6.8,1.3,9.7-0.1c4.6-2.2,7.5-7.6,9.4-13.1c0.6,15.9,3,38.1,11.4,44.7
		c2.3,1.8,5,2.4,7.9,1.6c7.9-2,10.7-16.5,12.5-25.2c0.2-1.2,0.4-2.2,0.6-3c2.1-9.6,3.6-19.4,5.1-28.9c1.9,4.7,3.7,9.2,7.1,13.5
		c0.5,0.7,1,1.2,1.3,1.6c0.4,0.5,0.9,1,0.9,1.2c0,0.3-0.5,1.2-1,2.3l-0.3,0.5c-0.3,0.6-0.6,1.3-0.9,1.9c-1.3,2.5-2.6,5.2-3.4,8.2
		c-1.9,7.9-0.3,21.6,6.8,25.9c2.8,1.7,7.4,2.5,14-3.3c5.5-4.8,7.1-12.7,4.3-21.7c-0.7-2.2-2.4-4.8-4.2-7.5c-2.2-3.2-4.6-6.9-4.4-9.1
		c0.1-1.2,3.1-4.3,4.6-5.8c0.7-0.8,1.4-1.4,1.8-1.9c3-3.6,5.8-6.7,8.6-9.4c4.4-4.3,9-8.5,13.3-12.2c-0.1,1-0.2,2.1-0.4,3.1
		c-0.5,3.5-1.1,7.4,1.5,11.2c3.8,5.6,9.2,5,13.3,3.8c-0.5,1.6-0.9,3.1-1.4,4.7c-4,13.6-8.2,27.6-9.2,42.1c0,0.5-0.1,1.1-0.2,1.8
		c-0.6,6.8-1.6,18.2,4.4,21.7c1.3,0.8,2.5,1.1,3.8,1.1c0.6,0,1.2-0.1,1.8-0.2c4.6-1.3,7.7-7.1,9.6-10.6l0.3-0.6
		c8.7-16.1,14.1-33.7,18.9-50.3c0.2-0.7,0.4-1.4,0.5-2.1c0.3-1.3,0.6-2.7,1.1-3.7l0.6-1.2c0-0.1,0.1-0.1,0.1-0.2
		c0.7,0.3,1.6,0.2,2.6-0.1c0.5-0.1,0.9-0.3,1.3-0.4c2.6-0.8,4.4-1.2,7.2-4.1c3.5-3.7,6.2-8,8.6-12.3c-0.4,3.1-0.9,6.1-1.4,9.1
		c-0.8,5.1-1.7,10.4-2.2,15.6c-0.1,1-0.2,2.2-0.4,3.5c-1.1,9.3-2.7,23.4,3,29.6c2.7,3,5.6,4.1,8.7,3.4c7.8-1.8,15.5-16.1,23.7-43.6
		c0.1,0.7,0.2,1.4,0.2,2.1c0.2,1.9,0.4,3.6,0.8,4.9c1.5,4.1,3.7,6.8,6.8,8.3c7.4,3.7,15.6-0.5,20.4-5.1
		c11.6-11.4,17.4-30.8,19.5-39.5c0.6,0.8,0.5,1.5,0,3.5c-0.1,0.4-0.2,0.9-0.3,1.4l-0.3,1.6c-0.4,2.2-0.9,4.4-1.3,6.6
		c-0.9,4.7-2,10.8-2.7,17.1c-1.5,12.8-2.3,25.2,6,35.9c2.7,3.5,5.7,5,8.8,4.5c10-1.7,18.1-23.6,25-44c0.5-1.4,0.9-2.7,1.3-3.9
		c1.8,4.4,5,6.4,9.5,6.1c4.9-0.4,7.7-3.6,9.7-7.1c0.1,3.7-0.1,7.6-0.4,11.4c-0.2,2.8-0.4,5.7-0.4,8.4c0,0.8,0,1.7-0.1,2.6
		c-0.2,6.1-0.5,14.5,3.6,19c2.1,2.3,4.4,3.2,6.9,2.8c7.8-1.2,15.1-15.2,20.6-27.4c2.1,1.7,4.2,2.3,6.5,1.9
		c5.4-1.1,9.8-8.5,13.1-16.2c0,1.7,0,3.4-0.1,5.1c-0.1,2.6-0.2,5.2,0,7.7c0.2,4.2,0.8,8.5,1.3,12.5c0.3,1.9,0.5,3.8,0.7,5.7
		c0.1,1.2,0.3,2.4,0.4,3.8c1,10,2.3,23.6,11.8,28.1c3.5,1.6,6.8,1.7,10,0.1c11.6-5.9,17.3-32.8,20.2-47.8c1.4,4.7,4.2,8.6,10.9,9
		c6.6,0.4,12.5-2.8,17.6-9.5c10-13.1,15.3-29.3,14.3-43.3L650.8,99z M627,100.7c0,1.3-1,2.8-2.3,4.1c0.4-1.1,0.8-2.2,1.3-3.4
		c0.2-0.5,0.5-1.1,0.7-1.7C626.9,100.1,627,100.4,627,100.7z M580.5,91.6c3.5-14.3,9.9-33.6,15.1-35.1c0.1,0,0.3-0.1,0.5-0.1
		c0.4,0,1,0.2,1.7,0.9c1.1,1.2,1.5,3,1.1,5.4C597.3,71.8,586.1,85.9,580.5,91.6z M554.3,117.2l0.3-0.8c0.6-1.8,1.2-3.6,2.4-4.6
		c0.7-0.5,3.9-1.5,5.7-1.8c-0.2,0.6-0.3,1.2-0.5,1.9c-4.6,16.5-7.6,22.6-9.5,24.4C551.8,129,552.3,123,554.3,117.2z M505.3,117
		c-0.2-4.1,0.6-10,5.2-14.5c1.9-1.9,2.8-2.1,3-2.1c0.3,0.4,0.7,2.2-0.1,6.9c-0.6,3.8-4,15-6.1,16.2c-0.5,0.3-0.9,0.4-1,0.3
		C506.1,123.6,505.2,122,505.3,117L505.3,117L505.3,117z M335.1,99c0.2-0.1,0.3-0.1,0.6-0.1c0.3,0,0.7,0.1,1.2,0.4
		c0.2,0.1,0.5,0.9,0.4,2.7c-0.7,6.5-6.2,17.3-9.5,21.6C328.5,117.7,330.9,101,335.1,99z M425.1,101.4c1-3.5,2.4-7.2,4.6-10.2
		c0.6,0.7,0.8,1.6,0.6,2.7C429.7,96.7,427.1,99.7,425.1,101.4z M457.2,78.1c0.1,3.2-0.5,6.2-1.2,8.1c-0.6-3.8-0.5-8.7,0.3-12.4
		C456.8,74.9,457.1,76.4,457.2,78.1z M281.4,177.6c-0.5,0.4-0.8,0.4-1.1,0.4c-2.6-0.5-3.9-8.2-3.9-13.2c0-5.3,1.1-10.2,3.2-14
		c0.2,0.5,0.4,1,0.7,1.5c1.8,4.1,3.6,8.3,4,12.3C284.6,167,283.8,175.4,281.4,177.6z M222.8,124.4
		C222.7,124.4,222.7,124.4,222.8,124.4c-1.1,6.4-2.2,12.8-4.9,17.6c0-3.9,0.9-8.1,2.8-12.7C220.9,128.6,221.7,126.6,222.8,124.4z
		 M49.1,179.5c-4.1-9.7-2.2-22,0.9-29.8c1.9-4.9,5.3-10.4,8.9-11.1c0.3-0.1,0.6-0.1,0.9-0.1c1.4,0,2.7,0.7,4.2,2.1
		c3.8,3.8,5.3,8.5,4.3,14C66.6,164.4,57.3,175,49.1,179.5z"/>
</g>
</svg>
